<svg width="24" height="24" viewBox="0 0 24 24" fill="none" xmlns="http://www.w3.org/2000/svg">
<path opacity="0.3" d="M16.25 2H7.75C4.57436 2 2 4.57436 2 7.75V16.25C2 19.4256 4.57436 22 7.75 22H16.25C19.4256 22 22 19.4256 22 16.25V7.75C22 4.57436 19.4256 2 16.25 2Z" fill="#A1A5B7"/>
<path d="M12.37 13.22C13.1101 13.22 13.71 12.6201 13.71 11.88C13.71 11.1399 13.1101 10.54 12.37 10.54C11.6299 10.54 11.03 11.1399 11.03 11.88C11.03 12.6201 11.6299 13.22 12.37 13.22Z" fill="#A1A5B7"/>
<path d="M7.34999 13.22C8.09006 13.22 8.68999 12.6201 8.68999 11.88C8.68999 11.1399 8.09006 10.54 7.34999 10.54C6.60993 10.54 6.00999 11.1399 6.00999 11.88C6.00999 12.6201 6.60993 13.22 7.34999 13.22Z" fill="#A1A5B7"/>
<path d="M17.38 13.22C18.1201 13.22 18.72 12.6201 18.72 11.88C18.72 11.1399 18.1201 10.54 17.38 10.54C16.6399 10.54 16.04 11.1399 16.04 11.88C16.04 12.6201 16.6399 13.22 17.38 13.22Z" fill="#A1A5B7"/>
</svg>
