<svg width="30" height="30" viewBox="0 0 30 30" fill="none" xmlns="http://www.w3.org/2000/svg">
<path opacity="0.3" d="M14.0791 4.36083C14.3493 5.04602 14.8194 5.63406 15.4283 6.04842C16.0373 6.46279 16.7568 6.68431 17.4933 6.68416H21.7433C23.0859 6.68377 24.4037 7.04542 25.5581 7.73103C26.7124 8.41665 27.6605 9.40085 28.3025 10.58C28.1829 8.58694 27.3042 6.71546 25.847 5.35049C24.3898 3.98551 22.4649 3.23083 20.4683 3.24166H13.5833L14.0791 4.36083Z" fill="#464D87"/>
<path d="M21.6867 6.68416H17.4367C16.7001 6.68431 15.9806 6.46279 15.3717 6.04842C14.7628 5.63406 14.2927 5.04602 14.0225 4.36083L13.5833 3.15666C13.3099 2.47369 12.839 1.8878 12.2308 1.47393C11.6226 1.06005 10.9048 0.837012 10.1692 0.833328H7.33583C6.48071 0.833326 5.634 1.00199 4.84415 1.32965C4.05431 1.65732 3.33685 2.13756 2.73285 2.74287C2.12885 3.34819 1.65018 4.06669 1.32423 4.85725C0.998283 5.6478 0.831465 6.49488 0.833328 7.34999V21.7717C0.831466 22.7558 1.02347 23.7307 1.39836 24.6406C1.77326 25.5506 2.32371 26.3778 3.0183 27.075C3.71288 27.7722 4.53799 28.3258 5.44651 28.7041C6.35503 29.0825 7.32918 29.2781 8.31333 29.28H21.6867C22.6708 29.2781 23.645 29.0825 24.5535 28.7041C25.462 28.3258 26.2871 27.7722 26.9817 27.075C27.6763 26.3778 28.2267 25.5506 28.6016 24.6406C28.9765 23.7307 29.1685 22.7558 29.1667 21.7717V14.1925C29.1685 13.2083 28.9765 12.2335 28.6016 11.3235C28.2267 10.4136 27.6763 9.58638 26.9817 8.88916C26.2871 8.19195 25.462 7.63837 24.5535 7.26004C23.645 6.8817 22.6708 6.68602 21.6867 6.68416ZM20.27 15.68L15.8783 21.4317C15.7853 21.5507 15.6673 21.6479 15.5327 21.7164C15.3981 21.7849 15.2501 21.8231 15.0992 21.8283C14.9506 21.8257 14.8043 21.7914 14.67 21.7279C14.5356 21.6644 14.4163 21.5731 14.32 21.46L11.1042 17.6633C10.9594 17.4541 10.898 17.1983 10.9321 16.9462C10.9662 16.694 11.0934 16.4637 11.2885 16.3005C11.4837 16.1373 11.7329 16.0529 11.9871 16.0639C12.2413 16.0749 12.4822 16.1805 12.6625 16.36L15 19.25L18.6267 14.5042C18.7062 14.3975 18.8061 14.3077 18.9206 14.2399C19.035 14.1721 19.1618 14.1277 19.2936 14.1092C19.4254 14.0908 19.5595 14.0987 19.6882 14.1324C19.8168 14.1662 19.9376 14.2251 20.0433 14.3058C20.241 14.4695 20.3707 14.7007 20.4074 14.9547C20.444 15.2086 20.385 15.4672 20.2417 15.68H20.27Z" fill="#464D87"/>
</svg>
