<svg width="22" height="30" viewBox="0 0 22 30" fill="none" xmlns="http://www.w3.org/2000/svg">
<path opacity="0.3" d="M21.6675 4.60168V4.13418C21.6675 3.25874 21.3198 2.41916 20.7007 1.80014C20.0817 1.18111 19.2421 0.833344 18.3667 0.833344H3.61919C2.74376 0.833344 1.90418 1.18111 1.28515 1.80014C0.666125 2.41916 0.318359 3.25874 0.318359 4.13418V4.60168C0.334757 5.67421 0.573646 6.73166 1.0199 7.70709C1.46616 8.68251 2.11007 9.55467 2.91086 10.2683L6.75003 13.7675C6.91651 13.9163 7.04971 14.0986 7.1409 14.3025C7.2321 14.5063 7.27923 14.7271 7.27923 14.9504C7.27923 15.1737 7.2321 15.3945 7.1409 15.5984C7.04971 15.8022 6.91651 15.9845 6.75003 16.1333L2.91086 19.59C2.11007 20.3037 1.46616 21.1758 1.0199 22.1513C0.573646 23.1267 0.334757 24.1841 0.318359 25.2567V25.8942C0.325845 26.7672 0.678857 27.6016 1.30014 28.2149C1.92142 28.8282 2.76036 29.1705 3.63336 29.1667H18.3809C18.8204 29.1668 19.2554 29.0791 19.6606 28.9088C20.0658 28.7385 20.4329 28.489 20.7403 28.175C21.0478 27.8609 21.2894 27.4886 21.4511 27.0799C21.6127 26.6713 21.6911 26.2344 21.6817 25.795V25.2992C21.6653 24.2266 21.4264 23.1692 20.9801 22.1938C20.5339 21.2183 19.89 20.3462 19.0892 19.6325L15.25 16.1333C15.0835 15.9845 14.9503 15.8022 14.8591 15.5984C14.768 15.3945 14.7208 15.1737 14.7208 14.9504C14.7208 14.7271 14.768 14.5063 14.8591 14.3025C14.9503 14.0986 15.0835 13.9163 15.25 13.7675L19.075 10.3108C19.8811 9.59236 20.5281 8.71335 20.9745 7.73018C21.421 6.74702 21.657 5.68141 21.6675 4.60168Z" fill="#F7C000"/>
<path d="M6.04171 23.9958L9.39921 20.525C9.61504 20.2965 9.87527 20.1144 10.1639 19.99C10.4526 19.8656 10.7636 19.8014 11.078 19.8014C11.3923 19.8014 11.7033 19.8656 11.992 19.99C12.2806 20.1144 12.5409 20.2965 12.7567 20.525L16.1142 23.9958C16.206 24.0889 16.2684 24.207 16.2935 24.3353C16.3187 24.4636 16.3055 24.5964 16.2557 24.7173C16.2058 24.8381 16.1215 24.9416 16.0132 25.0149C15.9049 25.0881 15.7774 25.1279 15.6467 25.1292H6.49504C6.36551 25.1252 6.23997 25.0835 6.13379 25.0092C6.02761 24.9349 5.94542 24.8313 5.89729 24.7109C5.84917 24.5906 5.83719 24.4589 5.86285 24.3319C5.8885 24.2048 5.95066 24.0881 6.04171 23.9958Z" fill="#F7C000"/>
</svg>
