<svg width="30" height="31" viewBox="0 0 30 31" fill="none" xmlns="http://www.w3.org/2000/svg">
<path opacity="0.3" d="M20.7516 1.91833H9.24831C4.60084 1.91833 0.833313 5.68586 0.833313 10.3333V21.7092C0.833313 26.3566 4.60084 30.1242 9.24831 30.1242H20.7516C25.3991 30.1242 29.1666 26.3566 29.1666 21.7092V10.3333C29.1666 5.68586 25.3991 1.91833 20.7516 1.91833Z" fill="#FAA61A"/>
<path d="M22.3383 11.0133L21.5025 10.3333C21.256 10.1461 20.955 10.0447 20.6454 10.0447C20.3359 10.0447 20.0348 10.1461 19.7883 10.3333L18.9667 11.0133C18.7591 11.1615 18.5155 11.2508 18.2614 11.272C18.0073 11.2932 17.7522 11.2455 17.523 11.1338C17.2938 11.0221 17.099 10.8506 16.9591 10.6374C16.8193 10.4242 16.7395 10.1772 16.7283 9.9225V1.93251C16.7283 1.55678 16.8776 1.19645 17.1433 0.930771C17.4089 0.665094 17.7693 0.515839 18.145 0.515839H23.2308C23.6066 0.515839 23.9669 0.665094 24.2326 0.930771C24.4983 1.19645 24.6475 1.55678 24.6475 1.93251V9.9225C24.6458 10.1894 24.5686 10.4503 24.4251 10.6753C24.2815 10.9003 24.0773 11.0801 23.836 11.1941C23.5947 11.3081 23.3261 11.3516 23.0611 11.3196C22.7961 11.2877 22.5456 11.1815 22.3383 11.0133ZM17.635 16C17.6369 15.8574 17.6104 15.7159 17.5572 15.5836C17.5039 15.4514 17.4249 15.331 17.3247 15.2295C17.2245 15.128 17.1052 15.0475 16.9737 14.9925C16.8421 14.9375 16.7009 14.9092 16.5583 14.9092H9.33334C9.19075 14.9092 9.04958 14.9375 8.91802 14.9925C8.78646 15.0475 8.66714 15.128 8.56697 15.2295C8.4668 15.331 8.3878 15.4514 8.33453 15.5836C8.28126 15.7159 8.2548 15.8574 8.25667 16C8.2548 16.1433 8.28117 16.2855 8.33426 16.4185C8.38736 16.5516 8.46615 16.6729 8.56613 16.7755C8.66611 16.8781 8.78532 16.96 8.91696 17.0166C9.0486 17.0731 9.19009 17.1032 9.33334 17.105H16.5583C16.7016 17.1032 16.8431 17.0731 16.9747 17.0166C17.1064 16.96 17.2256 16.8781 17.3256 16.7755C17.4255 16.6729 17.5043 16.5516 17.5574 16.4185C17.6105 16.2855 17.6369 16.1433 17.635 16ZM20.9217 21.5675C20.9217 21.2769 20.8072 20.9979 20.6031 20.7911C20.3989 20.5843 20.1214 20.4662 19.8308 20.4625H8.38417C8.09111 20.4625 7.81005 20.5789 7.60282 20.7862C7.39559 20.9934 7.27917 21.2744 7.27917 21.5675C7.27917 21.8606 7.39559 22.1416 7.60282 22.3489C7.81005 22.5561 8.09111 22.6725 8.38417 22.6725H19.8308C20.119 22.6688 20.3943 22.5527 20.5981 22.3489C20.8019 22.1452 20.918 21.8698 20.9217 21.5817V21.5675Z" fill="#FAA61A"/>
</svg>
