<svg width="32" height="32" viewBox="0 0 32 32" fill="none" xmlns="http://www.w3.org/2000/svg">
<path d="M31.3425 12.855H24.6558C24.0112 12.8355 23.3772 12.6863 22.7916 12.4164C22.2059 12.1466 21.6806 11.7615 21.2469 11.2842C20.8133 10.807 20.4802 10.2473 20.2675 9.63847C20.0549 9.02969 19.967 8.38432 20.0091 7.74084V0.940842L31.3425 12.855ZM11.9483 26.1433C11.9615 26.8958 11.8246 27.6433 11.5458 28.3423C11.2669 29.0413 10.8516 29.6778 10.3241 30.2145C9.79654 30.7513 9.16739 31.1776 8.47333 31.4685C7.77928 31.7595 7.03422 31.9093 6.28164 31.9092C4.75245 31.9092 3.28588 31.3017 2.20458 30.2204C1.12328 29.1391 0.515808 27.6725 0.515808 26.1433C0.515808 24.6141 1.12328 23.1476 2.20458 22.0663C3.28588 20.985 4.75245 20.3775 6.28164 20.3775C7.03422 20.3774 7.77928 20.5272 8.47333 20.8181C9.16739 21.1091 9.79654 21.5354 10.3241 22.0721C10.8516 22.6089 11.2669 23.2453 11.5458 23.9443C11.8246 24.6433 11.9615 25.3909 11.9483 26.1433ZM7.82581 26.1433L8.57664 25.4633C8.77405 25.2576 8.88427 24.9835 8.88427 24.6983C8.88427 24.4132 8.77405 24.1391 8.57664 23.9333C8.48273 23.83 8.36938 23.7462 8.24306 23.6868C8.11675 23.6273 7.97995 23.5933 7.84049 23.5867C7.70103 23.5801 7.56164 23.6011 7.43028 23.6484C7.29893 23.6957 7.17819 23.7685 7.07497 23.8625L6.25331 24.6133L5.45997 23.82C5.3623 23.7198 5.24555 23.6401 5.11659 23.5857C4.98764 23.5313 4.8491 23.5033 4.70914 23.5033C4.56918 23.5033 4.43064 23.5313 4.30169 23.5857C4.17274 23.6401 4.05598 23.7198 3.95831 23.82C3.7609 24.0258 3.65068 24.2999 3.65068 24.585C3.65068 24.8701 3.7609 25.1442 3.95831 25.35L4.68081 26.0725L3.92997 26.7667C3.72925 26.9707 3.61676 27.2455 3.61676 27.5317C3.61676 27.8179 3.72925 28.0926 3.92997 28.2967C4.01411 28.4197 4.12317 28.5236 4.25009 28.6017C4.377 28.6798 4.51893 28.7303 4.66664 28.75C4.93381 28.746 5.19049 28.6454 5.38914 28.4667L6.21081 27.7017L6.98997 28.495C7.08661 28.597 7.20303 28.6783 7.33213 28.7338C7.46122 28.7894 7.60028 28.818 7.74081 28.818C7.88134 28.818 8.0204 28.7894 8.14949 28.7338C8.27858 28.6783 8.395 28.597 8.49164 28.495C8.68904 28.2892 8.79927 28.0151 8.79927 27.73C8.79927 27.4449 8.68904 27.1708 8.49164 26.965L7.82581 26.1433Z" fill="#7239EA"/>
<path opacity="0.3" d="M31.3566 15.0083H24.6558C23.7311 14.9848 22.8204 14.7771 21.977 14.3973C21.1336 14.0175 20.3744 13.4733 19.7438 12.7966C19.1133 12.1199 18.624 11.3242 18.3047 10.4561C17.9854 9.58795 17.8424 8.66487 17.8841 7.74084V0.912506H10.9283C8.8004 0.931218 6.76687 1.79354 5.27416 3.31016C3.78145 4.82677 2.95154 6.87374 2.96663 9.00167V21.1567C2.96663 21.2558 2.96663 21.3692 2.96663 21.4683C3.92274 20.7626 5.07912 20.3805 6.26747 20.3775C7.02004 20.3774 7.7651 20.5272 8.45916 20.8181C9.15321 21.1091 9.78236 21.5354 10.3099 22.0721C10.8374 22.6089 11.2527 23.2453 11.5316 23.9443C11.8105 24.6433 11.9473 25.3909 11.9341 26.1433C11.9339 27.2428 11.6193 28.3193 11.0275 29.2458H23.4091C25.537 29.2271 27.5706 28.3648 29.0633 26.8482C30.556 25.3316 31.3859 23.2846 31.3708 21.1567L31.3566 15.0083Z" fill="#7239EA"/>
</svg>
