<svg width="30" height="30" viewBox="0 0 30 30" fill="none" xmlns="http://www.w3.org/2000/svg">
<path opacity="0.3" d="M29.1667 15H22.5083C21.5744 14.9825 20.6535 14.7766 19.801 14.3948C18.9485 14.0129 18.1818 13.4629 17.5469 12.7777C16.912 12.0926 16.4219 11.2863 16.1059 10.4072C15.79 9.52809 15.6548 8.59428 15.7083 7.66168V0.833344H8.76666C6.64251 0.855778 4.61406 1.7202 3.12665 3.23682C1.63924 4.75345 0.814441 6.79832 0.833325 8.92251V21.0775C0.814441 23.2017 1.63924 25.2466 3.12665 26.7632C4.61406 28.2798 6.64251 29.1442 8.76666 29.1667H21.2333C23.3575 29.1442 25.3859 28.2798 26.8733 26.7632C28.3607 25.2466 29.1855 23.2017 29.1667 21.0775V15Z" fill="#47BE7D"/>
<path d="M28.6142 13.5833H21.9275C21.2881 13.5711 20.6577 13.4298 20.0743 13.1678C19.4909 12.9059 18.9664 12.5287 18.5324 12.059C18.0984 11.5893 17.7638 11.0367 17.5487 10.4344C17.3337 9.83209 17.2425 9.19255 17.2808 8.55416V1.85333L28.6142 13.5833ZM13.3 20.0858L11.0192 22.0833V15C11.0192 14.7182 10.9072 14.448 10.708 14.2487C10.5087 14.0494 10.2385 13.9375 9.95666 13.9375C9.67487 13.9375 9.40462 14.0494 9.20536 14.2487C9.0061 14.448 8.89416 14.7182 8.89416 15V22.0833L6.27333 20.0575C6.16357 19.971 6.03784 19.9069 5.90333 19.869C5.76881 19.8311 5.62815 19.8201 5.48936 19.8365C5.35058 19.8529 5.21639 19.8966 5.09446 19.9649C4.97254 20.0332 4.86525 20.1248 4.77875 20.2346C4.60403 20.4563 4.52454 20.7383 4.55775 21.0185C4.59096 21.2988 4.73415 21.5545 4.95583 21.7292L9.33333 25.1717L9.48916 25.2567L9.61666 25.3275C9.73955 25.3714 9.86869 25.3954 9.99916 25.3983C10.1314 25.3987 10.262 25.3696 10.3817 25.3133L10.5233 25.2425L10.6933 25.1433L14.7167 21.7008C14.9281 21.515 15.0584 21.2538 15.0795 20.9731C15.1007 20.6924 15.0112 20.4146 14.83 20.1992C14.7399 20.0869 14.6277 19.9944 14.5004 19.9273C14.373 19.8603 14.2332 19.8202 14.0897 19.8096C13.9461 19.799 13.8019 19.818 13.6661 19.8655C13.5302 19.9131 13.4056 19.988 13.3 20.0858Z" fill="#47BE7D"/>
</svg>
