<svg width="30" height="30" viewBox="0 0 30 30" fill="none" xmlns="http://www.w3.org/2000/svg">
<path opacity="0.3" d="M29.1667 15H22.5083C21.5744 14.9825 20.6535 14.7766 19.801 14.3948C18.9485 14.0129 18.1818 13.4629 17.5469 12.7777C16.912 12.0926 16.4219 11.2863 16.1059 10.4072C15.79 9.52809 15.6548 8.59428 15.7083 7.66168V0.833344H8.76666C6.64251 0.855778 4.61406 1.7202 3.12665 3.23682C1.63924 4.75345 0.814441 6.79832 0.833325 8.92251V21.0775C0.814441 23.2017 1.63924 25.2466 3.12665 26.7632C4.61406 28.2798 6.64251 29.1442 8.76666 29.1667H21.2333C23.3575 29.1442 25.3859 28.2798 26.8733 26.7632C28.3607 25.2466 29.1855 23.2017 29.1667 21.0775V15Z" fill="#0098F4"/>
<path d="M29.0675 12.7758H22.4658C21.8225 12.7544 21.19 12.6039 20.606 12.3332C20.0219 12.0625 19.4983 11.6772 19.0661 11.2001C18.634 10.723 18.3022 10.164 18.0904 9.5561C17.8786 8.94824 17.7912 8.304 17.8333 7.66168V0.833344L21.6016 4.80001L29.0675 12.7758Z" fill="#0098F4"/>
<path d="M11.2741 16.7708C11.184 16.5148 10.9969 16.3045 10.753 16.1852C10.5092 16.0659 10.2282 16.0473 9.9708 16.1333L9.3333 16.4167C9.76717 15.6597 10.482 15.1043 11.3227 14.8709C12.1634 14.6376 13.0622 14.745 13.8241 15.17C13.9434 15.2392 14.0754 15.2836 14.2122 15.3003C14.3491 15.3171 14.4879 15.3059 14.6203 15.2675C14.7527 15.2291 14.876 15.1643 14.9826 15.0769C15.0893 14.9895 15.1771 14.8814 15.2408 14.7592C15.3728 14.5165 15.4036 14.2316 15.3267 13.9664C15.2498 13.7011 15.0713 13.4769 14.83 13.3425C14.2086 12.9936 13.5233 12.7736 12.8149 12.6957C12.1066 12.6178 11.3898 12.6836 10.7075 12.8892C10.019 13.0918 9.37836 13.4307 8.82349 13.8858C8.26862 14.3409 7.81088 14.9029 7.47747 15.5383C7.47747 15.5383 7.47747 15.6517 7.47747 15.7225L7.1658 14.8583C7.12001 14.7313 7.04944 14.6147 6.95821 14.5151C6.86698 14.4156 6.75689 14.3351 6.63434 14.2785C6.51178 14.2218 6.37919 14.19 6.24426 14.185C6.10933 14.18 5.97474 14.2018 5.8483 14.2492C5.71286 14.2987 5.5891 14.3757 5.48475 14.4752C5.38041 14.5748 5.29773 14.6948 5.24188 14.8278C5.18604 14.9607 5.15823 15.1038 5.16019 15.248C5.16216 15.3922 5.19385 15.5344 5.2533 15.6658L6.38664 18.6975C6.45443 18.8955 6.58231 19.0674 6.75245 19.1893C6.92259 19.3112 7.12651 19.377 7.3358 19.3775C7.44872 19.3912 7.56288 19.3912 7.6758 19.3775L10.7925 18.2583C10.926 18.197 11.0453 18.1086 11.1429 17.9988C11.2405 17.8889 11.3143 17.76 11.3596 17.6202C11.4048 17.4805 11.4206 17.3328 11.4059 17.1866C11.3912 17.0404 11.3463 16.8988 11.2741 16.7708Z" fill="#3F4254"/>
<path d="M17.8333 19.335C17.7922 19.1931 17.7207 19.0618 17.6238 18.9503C17.5269 18.8388 17.407 18.7496 17.2723 18.689C17.1375 18.6283 16.9912 18.5977 16.8435 18.5992C16.6958 18.6006 16.5501 18.6342 16.4166 18.6975L13.4416 19.8875C13.3087 19.9399 13.1879 20.0189 13.0866 20.1197C12.9853 20.2204 12.9056 20.3408 12.8526 20.4735C12.7995 20.6062 12.7741 20.7483 12.778 20.8912C12.7818 21.034 12.8148 21.1745 12.875 21.3042C12.922 21.4298 12.9936 21.5448 13.0858 21.6424C13.1779 21.7399 13.2886 21.8181 13.4113 21.8722C13.5341 21.9263 13.6665 21.9553 13.8006 21.9575C13.9348 21.9597 14.068 21.9351 14.1925 21.885L14.8158 21.63C14.3819 22.387 13.6672 22.9424 12.8265 23.1757C11.9858 23.4091 11.087 23.3017 10.325 22.8767C10.2049 22.808 10.0721 22.7644 9.93462 22.7487C9.79716 22.7329 9.65793 22.7453 9.52541 22.7851C9.39289 22.8248 9.26985 22.8911 9.16376 22.9799C9.05767 23.0687 8.97076 23.1782 8.90831 23.3017C8.77637 23.5443 8.7455 23.8292 8.82243 24.0945C8.89936 24.3597 9.07786 24.5839 9.31915 24.7183C10.1044 25.1665 10.9934 25.401 11.8975 25.3983C12.866 25.3941 13.8154 25.1286 14.6456 24.63C15.4759 24.1313 16.1562 23.4179 16.615 22.565L16.8275 23.2308C16.8911 23.4364 17.0191 23.6162 17.1925 23.7437C17.3659 23.8712 17.5756 23.9397 17.7908 23.9392C17.899 23.9529 18.0085 23.9529 18.1166 23.9392C18.3763 23.8489 18.5902 23.6602 18.7121 23.4137C18.8339 23.1673 18.8542 22.8829 18.7683 22.6217L17.8333 19.335Z" fill="#3F4254"/>
</svg>
